<svg width="95" height="28" viewBox="0 0 95 28" fill="none" xmlns="http://www.w3.org/2000/svg">
<path d="M2.90909 0C1.3024 0 0 1.26 0 2.8V12.6V15.4V25.2C0 26.74 1.3024 28 2.90909 28H16H29.0909C30.6982 28 32 26.74 32 25.2V15.4V12.6V2.8C32 1.26 30.6982 0 29.0909 0H16H2.90909Z" fill="#2C3E50"/>
<path d="M2.90909 0C1.3024 0 0 1.25356 0 2.8V7V11.2V12.6V14V15.4V19.6V23.8C0 25.347 1.3024 26.6 2.90909 26.6H16H29.0909C30.6982 26.6 32 25.347 32 23.8V19.6V14V11.2V7V2.8C32 1.25356 30.6982 0 29.0909 0H16H2.90909Z" fill="#34495E"/>
<path d="M4.36364 4.37489V5.94989L8.72728 8.39989L4.36364 10.8499V12.4249L11.6364 8.39989L4.36364 4.37489ZM11.6364 11.1999V12.5999H18.9091V11.1999H11.6364Z" fill="#ECF0F1"/>
<path d="M38.1776 4H52.6896C53.485 4 54.1414 4.52142 54.6589 5.56427C54.7542 5.88728 54.8019 6.13645 54.8019 6.3118V6.89782C54.8019 7.73764 54.3348 8.44056 53.4005 9.00659C53.0982 9.14502 52.8136 9.21424 52.5466 9.21424H47.7338V22.5544C47.7338 23.6372 47.1686 24.437 46.0383 24.9539L45.6624 25H45.1435C44.3891 25 43.7572 24.477 43.2478 23.4311C43.128 23.0897 43.0681 22.7728 43.0681 22.4806V9.21424H38.3737C37.2761 9.21424 36.5107 8.59437 36.0776 7.35465C36.0259 7.09932 36 6.91782 36 6.81015V6.44562C36 5.38123 36.5529 4.59525 37.6587 4.08767C37.8494 4.02922 38.0224 4 38.1776 4ZM58.2787 4H72.7866C73.582 4 74.2398 4.52142 74.76 5.56427C74.8526 5.88728 74.8989 6.13645 74.8989 6.3118V6.89782C74.8989 7.73764 74.4331 8.44056 73.5016 9.00659C73.1993 9.14502 72.9133 9.21424 72.6437 9.21424H67.8349V22.5544C67.8349 23.6372 67.2684 24.437 66.1353 24.9539L65.7594 25H65.2406C64.4888 25 63.8583 24.477 63.3489 23.4311C63.2264 23.0897 63.1651 22.7728 63.1651 22.4806V9.21424H58.4707C57.3731 9.21424 56.6077 8.59437 56.1746 7.35465C56.1229 7.09932 56.097 6.91782 56.097 6.81015V6.44562C56.097 5.38123 56.6513 4.59525 57.7598 4.08767C57.9505 4.02922 58.1235 4 58.2787 4ZM78.3757 4H78.7148C79.423 4 80.2129 4.60448 81.0845 5.81345C81.1117 5.81345 82.6288 7.5223 85.6358 10.94C89.4763 6.54713 91.4265 4.34608 91.4864 4.33685C91.9004 4.11228 92.2586 4 92.5609 4H92.8878C93.6831 4 94.3395 4.52142 94.857 5.56427C94.9523 5.86882 95 6.118 95 6.3118V22.7297C95 23.5388 94.5547 24.2279 93.664 24.797C93.4134 24.9323 93.1805 25 92.9654 25H92.4465C91.771 25 91.1786 24.5709 90.6693 23.7126C90.4432 23.3588 90.3302 22.8113 90.3302 22.0699V13.0488C88.143 15.5282 87.0331 16.768 87.0004 16.768C86.5837 17.1002 86.1166 17.2663 85.5991 17.2663C84.7765 17.2663 83.9117 16.6465 83.0047 15.4067C81.6047 13.8071 80.8911 13.0073 80.8639 13.0073V22.3929C80.8639 23.6726 80.2592 24.5263 79.0499 24.9539C79.0145 24.9846 78.9287 25 78.7925 25H78.2736C77.5464 25 76.9281 24.517 76.4187 23.5511C76.2717 23.2096 76.1981 22.8774 76.1981 22.5544V6.39947C76.1981 5.40584 76.7429 4.63524 77.8324 4.08767C78.0557 4.02922 78.2368 4 78.3757 4Z" fill="#34495E"/>
</svg>
